<?xml version="1.0" encoding="utf-8"?>
<!-- Generator: Adobe Illustrator 22.1.0, SVG Export Plug-In . SVG Version: 6.00 Build 0)  -->
<svg version="1.1" id="Layer_1" xmlns="http://www.w3.org/2000/svg" xmlns:xlink="http://www.w3.org/1999/xlink" x="0px" y="0px"
	 viewBox="0 0 396 261.4" style="enable-background:new 0 0 396 261.4;" xml:space="preserve">
<style type="text/css">
	.st0{fill:#4A4F54;}
	.st1{fill:#FFFFFF;stroke:#4A4F54;stroke-width:0.3218;stroke-miterlimit:10;}
	.st2{fill:#FF4438;}
	.st3{fill:#FFFFFF;}
	.st4{fill:#FFFFFF;stroke:#000000;stroke-width:0.3599;stroke-linecap:round;stroke-miterlimit:1;}
	.st5{fill:none;}
</style>
<g>
	<g>
		<path class="st0" d="M130.7,116.6c-0.1-0.9,0.5-1.3,1.4-1.3h5.2c0.8,0,1.3,0.4,1.4,1.2c0.5,2.6,2.8,3.9,6.7,3.9c4.1,0,6-1.6,6-3.8
			c0-2.7-3.2-3.9-7.1-5.1c-5.8-1.9-12.9-4.1-12.9-12.1c0-7.3,6.4-11,13.2-11c6.7,0,12.9,3.4,13.6,10.9c0.1,0.9-0.5,1.3-1.4,1.3h-5.2
			c-0.8,0-1.3-0.4-1.4-1.2c-0.5-2.5-2.5-3.7-5.6-3.7c-3.3,0-5.2,1.6-5.2,3.8c0,2.8,2.8,4,6.5,5.3c5.9,2,13.5,4,13.5,12
			c0,7.3-6.4,11.1-13.9,11.1C137.9,127.7,131.4,124.2,130.7,116.6z"/>
		<path class="st0" d="M164.7,108c0-11.1,9.4-19.7,21-19.7c11.7,0,21,8.6,21,19.7s-9.4,19.7-21,19.7
			C174,127.7,164.7,119.1,164.7,108z M198.8,108c0-7.3-5.7-12.4-13.1-12.4c-7.3,0-13.1,5.1-13.1,12.4c0,7.3,5.7,12.4,13.1,12.4
			C193.1,120.4,198.8,115.3,198.8,108z"/>
		<path class="st0" d="M235.6,89h5.2c0.9,0,1.4,0.5,1.4,1.3v35.3c0,0.8-0.5,1.3-1.4,1.3h-3.6c-0.7,0-1.3-0.3-1.7-0.8l-15.2-22.6
			v22.1c0,0.8-0.5,1.3-1.4,1.3h-5.2c-0.9,0-1.4-0.5-1.4-1.3V90.3c0-0.8,0.5-1.3,1.4-1.3h3.6c0.7,0,1.3,0.3,1.7,0.8l15.2,22.6V90.3
			C234.2,89.5,234.7,89,235.6,89z"/>
		<path class="st0" d="M247.4,116.6c-0.1-0.9,0.5-1.3,1.4-1.3h5.2c0.8,0,1.3,0.4,1.4,1.2c0.5,2.6,2.8,3.9,6.7,3.9c4.1,0,6-1.6,6-3.8
			c0-2.7-3.2-3.9-7.1-5.1c-5.8-1.9-12.9-4.1-12.9-12.1c0-7.3,6.4-11,13.2-11c6.7,0,12.9,3.4,13.6,10.9c0.1,0.9-0.5,1.3-1.4,1.3h-5.2
			c-0.8,0-1.3-0.4-1.4-1.2c-0.5-2.5-2.5-3.7-5.6-3.7c-3.3,0-5.2,1.6-5.2,3.8c0,2.8,2.8,4,6.5,5.3c5.9,2,13.5,4,13.5,12
			c0,7.3-6.4,11.1-13.9,11.1C254.6,127.7,248.1,124.2,247.4,116.6z"/>
		<path class="st0" d="M289.8,116.6c0-6.1,5.2-10.9,11.7-10.9c6.5,0,11.7,4.7,11.7,10.9c0,6.1-5.2,10.9-11.7,10.9
			C295,127.5,289.8,122.7,289.8,116.6z M309.3,116.6c0-4.2-3.4-7.4-7.8-7.4s-7.8,3.2-7.8,7.4c0,4.2,3.4,7.4,7.8,7.4
			S309.3,120.8,309.3,116.6z"/>
		<path class="st0" d="M322.4,105.6v0.6h4.9c0.6,0,0.9,0.3,0.9,0.9v1.7c0,0.6-0.3,0.9-0.9,0.9h-4.9v16.4c0,0.6-0.3,0.9-0.9,0.9h-2
			c-0.6,0-0.9-0.3-0.9-0.9v-16.4h-2.6c-0.6,0-0.9-0.3-0.9-0.9v-1.7c0-0.6,0.3-0.9,0.9-0.9h2.6v-0.6c0-5.2,3-8.3,8.7-8.2
			c0.6,0,0.9,0.4,0.9,0.9v1.7c0,0.6-0.3,0.8-1,0.8C324,100.8,322.4,102.3,322.4,105.6z"/>
	</g>
	<g>
		<path class="st0" d="M152.5,137.9h5.2c0.9,0,1.4,0.5,1.4,1.3v35.3c0,0.8-0.5,1.3-1.4,1.3h-3.6c-0.7,0-1.3-0.3-1.7-0.8l-15.2-22.6
			v22.1c0,0.8-0.5,1.3-1.4,1.3h-5.2c-0.9,0-1.4-0.5-1.4-1.3v-35.3c0-0.8,0.5-1.3,1.4-1.3h3.6c0.7,0,1.3,0.3,1.7,0.8l15.2,22.6v-22.1
			C151.1,138.3,151.6,137.9,152.5,137.9z"/>
		<path class="st0" d="M164.7,156.8c0-11.1,9.4-19.7,21-19.7c11.7,0,21,8.6,21,19.7c0,11.1-9.4,19.7-21,19.7
			C174,176.5,164.7,167.9,164.7,156.8z M198.8,156.8c0-7.3-5.7-12.4-13.1-12.4c-7.3,0-13.1,5.1-13.1,12.4c0,7.3,5.7,12.4,13.1,12.4
			C193,169.3,198.8,164.1,198.8,156.8z"/>
		<path class="st0" d="M244.7,174.2c0.7,0.8,0.3,1.6-0.8,1.6h-6.1c-0.7,0-1.3-0.2-1.7-0.8l-10.8-12.4h-4.9v11.8
			c0,0.8-0.5,1.3-1.4,1.3h-5.2c-0.9,0-1.4-0.5-1.4-1.3v-35.3c0-0.8,0.5-1.3,1.4-1.3h6.6h7.4c7.4,0,13.4,5.6,13.4,12.6
			c0,4.7-3.1,8.9-7.6,10.9L244.7,174.2L244.7,174.2z M220.3,156.1h7.4c3,0,5.5-2.5,5.5-5.6c0-3.2-2.5-5.6-5.5-5.6h-7.4V156.1z"/>
		<path class="st0" d="M295,139.3l-10.7,35.4c-0.2,0.8-0.8,1.1-1.5,1.1h-6.4c-0.8,0-1.3-0.3-1.5-1.1l-4.9-16.2l-5,16.2
			c-0.2,0.8-0.8,1.1-1.5,1.1H257c-0.8,0-1.3-0.3-1.5-1.1l-10.7-35.4c-0.3-0.9,0.2-1.4,1.2-1.4h5.5c0.8,0,1.3,0.4,1.5,1.1l7.8,27.3
			l5.8-19.3l-2.3-7.7c-0.3-0.9,0.2-1.4,1.2-1.4h4.6c0.8,0,1.3,0.4,1.5,1.1l7.8,27.3l7.8-27.3c0.2-0.7,0.7-1.1,1.5-1.1h5.5
			C294.8,137.9,295.3,138.4,295,139.3z"/>
		<path class="st0" d="M327,175.8h-5.8c-0.8,0-1.3-0.3-1.5-1.1l-1.9-5.7h-15.5l-1.9,5.7c-0.2,0.7-0.8,1.1-1.5,1.1h-5.8
			c-1,0-1.5-0.5-1.1-1.4l12.9-35.4c0.2-0.7,0.8-1.1,1.6-1.1h7.5c0.8,0,1.4,0.4,1.6,1.1l12.9,35.4C328.5,175.3,328,175.8,327,175.8z
			 M315.4,162l-5.4-15.8l-5.4,15.8H315.4z"/>
		<path class="st0" d="M355.6,137.9c1.1,0,1.5,0.6,0.9,1.5L344.2,159v15.5c0,0.8-0.5,1.3-1.4,1.3h-5.2c-0.9,0-1.4-0.5-1.4-1.3v-15.6
			L324,139.4c-0.6-0.9-0.1-1.5,0.9-1.5h6c0.8,0,1.3,0.3,1.6,0.9l7.7,13l7.7-13c0.3-0.6,0.9-0.9,1.6-0.9H355.6L355.6,137.9z"/>
	</g>
	<g>
		<g>
			<path class="st1" d="M40.2,81.5c0,0,36.3-13.5,73.2,0c0,0,10.5,58.4-36.9,105.8C76.4,187.3,33.4,146.7,40.2,81.5z"/>
		</g>
		<path class="st0" d="M48,131.8l1,3.2c9.8,29.6,27.5,47.7,27.5,47.7c13.8-14.4,22.2-30.1,27.3-44.7c0.3-1,0.6-2,1-2.8
			c0.4-1.1,1.1-3.3,1.1-3.3H48z"/>
		<path class="st2" d="M110.3,84c-10-3.4-20.9-5.1-32.3-5.1c-16.4,0-29.7,3.6-34.7,5.1c-0.5,5.8-0.5,11.7-0.5,17.5
			c0,7.5,1.4,15.1,3.1,22.4c0.5,2,1,4.1,1.6,6.1l58.8,0c1.9-6.7,3.3-13.5,4-20.4c0.8-7.1,0.5-14.4,0.1-21.5
			C110.5,87.7,110.6,84.1,110.3,84z"/>
		<g>
			<path class="st3" d="M57.9,97.1c-1.4,0.8-6,0.2-6,0.2L51,99.9c4.1,1.2,7.5,0,7.5,0c1.4-0.4,2.5-1.5,2.5-1.5
				c1.2-0.9,1.3-2.2,1.3-2.2c0.3-1.2-0.4-2.5-0.4-2.5c-0.5-0.9-1.8-1.2-1.8-1.2c-1.8-0.3-4.4-1.2-4.4-1.2c-3.9-1.5-1-3.2-1-3.2
				c2-1.1,5.4-0.2,5.4-0.2l0.9-2.6c-1.5-0.5-4.4-0.4-4.7-0.4c-2.5,0.2-4,1.5-4,1.5c-2.2,1.3-1.8,3.4-1.8,3.4c-0.1,2,1.8,3.1,1.8,3.1
				c2.2,1.4,4.3,1.6,4.3,1.6S60.6,95.4,57.9,97.1z"/>
		</g>
		<g>
			<polygon class="st3" points="100.9,86.1 100.7,92.9 95.8,85 91.3,84 91.2,98.1 94.5,98.8 94.5,89.8 101,99.8 103.9,100.4 
				103.9,86.9 			"/>
		</g>
		<g>
			<polygon class="st3" points="68,88.4 74.8,88.4 76.9,82.2 78.9,88.4 85.9,88.4 80.4,92.8 82.2,98.9 76.9,95 71.6,98.9 73.5,92.7 
							"/>
		</g>
		<path class="st3" d="M96.5,136.3c1.8-4.9,6.7-8.1,6.6-13.7c0-3-0.8-6.5-2.3-9.1c-0.4-0.6-1.4-2.8-2.1-3
			c-9.9-2.4-19.9-4.3-29.9-6.1c-1.2-0.2-4.9-0.9-4.9-0.9c0.7,0.6,2.9,5,3.4,6.1c2.4,5.3,3.3,11.2,2.7,17.1c-0.5,4.5-4.3,9.2-7.9,14
			c0.3,0.3,0.2,0.4,0.6,0.1c3-2.2,10.5-6.5,15.1-8.1C85,130.3,90.2,133.4,96.5,136.3z"/>
		<g>
			<g>
				<g>
					<path class="st4" d="M89.7,130.1L89.7,130.1C89.7,130.2,89.7,130.2,89.7,130.1z"/>
					<path class="st3" d="M87.4,150.4c-1.4,0-3-0.4-4.7-1.3c-0.6,0.3-2.5,1.1-4.9,1.1c-1.6,0-3-0.4-4.3-1.1
						c-0.3,0.1-1.1,0.3-2.1,0.3c-1.5,0-3.1-0.4-4.5-1.2c0,0-1.2-0.7-3.1-0.7c-0.5,0-1,0-1.5,0.1c0,0-0.6,0.1-1.5,0.1
						c-1.5,0-4.2-0.4-5.4-2.7c-1-2.1-0.1-6.8,0.4-8.5c-0.9-0.6-1.8-1.5-1.5-2.6c0.2-0.7,0.9-1.2,1.8-1.2c0.7,0,1.3,0.3,1.8,0.7
						c0.9,1,1,2.5,1.1,3.6c0.2,3,2.1,3.9,5.4,4.4c1.1,0.2,2.3,0.2,3.4,0.2c1.1,0,2.2,0.1,3.4,0.1c2.9,0,5.1-0.2,7.1-0.6
						c5.6-1.1,11.2-5.1,11-11.2c0-0.5,0-0.9,0-1.3c0-1.6,0-2.4-0.6-4.4c-1.6-6.4,1.7-9.6,1.9-9.7c1.1-1.1,2.8-1.5,2.9-1.5
						c0.9,0.2,2,0.5,3.5,1.4c0.2,0.1,0.3,0.2,0.5,0.3c0.2,0.1,0.4,0.2,0.6,0.4c0.5,0.6,0.3,1.3,0.2,1.6c0,0.1-0.1,0.2-0.1,0.2
						c-0.1,0.4,0.4,1.3,0.9,1.9c0,0,0.1,0,0.1,0c0.5,0,0.7,0.2,0.8,0.4c0.2,0.3,0.2,0.8,0.1,1.1c-1.1,1.4-1.9,1.9-2.6,1.9
						c-0.8,0-1.4-0.7-1.9-1.5c-0.1-0.2-0.3-0.4-0.4-0.6c-0.8-1-1.5-1.6-2.1-1.6c-0.1,0-0.2,0-0.4,0.1c-1.8,0.8,0.5,6.5,1.3,8.6
						c0.1,0.4,0.3,0.7,0.3,0.9c0.5,1.5,1.2,3,2,4.5c0.5,1.1,1.1,2.3,1.6,3.4c0.1,0.2,2.4,5.5,0.9,8.8c-0.5,1-1.3,1.8-2.4,2.2
						c-0.2,0.5-0.8,1.9-2.2,1.9c-0.2,0-0.5,0-0.7-0.1c-0.3,0.4-1.1,1.1-2.2,1.1c-0.3,0-0.6-0.1-1-0.2
						C89.8,149.9,88.9,150.4,87.4,150.4z"/>
				</g>
				<g>
					<g>
						<path class="st0" d="M94.8,149c-0.1,0-0.1,0-0.2-0.1c-0.1-0.1-0.3-0.2-0.2-0.3c3.3-4.6,4-9.6,3.6-10.8c-0.1-0.2,0-0.4,0.2-0.4
							c0.2-0.1,0.4,0,0.4,0.2c0.5,1.4-0.1,6.5-3.5,11.2C95,148.9,94.9,149,94.8,149z"/>
					</g>
				</g>
				<g>
					<g>
						<path class="st0" d="M93.3,149.1c0,0-0.1,0-0.1,0c-0.2-0.1-0.2-0.3-0.1-0.4c3.1-6.3,1.8-11.5,0.5-15c-1.4-3.8-4.5-13-2.4-15.1
							c0.5-0.5,1.2-0.6,2.1-0.3c0.2,0.1,0.3,0.2,0.2,0.4c-0.1,0.2-0.2,0.3-0.4,0.2c-0.6-0.2-1.1-0.2-1.4,0.2
							c-1.5,1.5,0.5,8.7,2.6,14.5c1.3,3.5,2.7,9-0.6,15.5C93.6,149.1,93.4,149.1,93.3,149.1z"/>
					</g>
				</g>
				<path class="st0" d="M96.3,117.3c-0.2,0.1-0.8,0.5-0.8,0.5l-1.2-0.7c0,0-0.1-0.9,0.7-0.8C95.8,116.4,96.3,117.3,96.3,117.3z"/>
			</g>
			<g>
				<g>
					<path class="st0" d="M69.4,144.8c2.1,0.4,4.2,0.3,6.4,0.3c2.1-0.1,4.2-0.2,6.3-0.6c2.1-0.3,4.2-0.8,6.2-1.4
						c1-0.3,2-0.6,2.9-1.1c0.9-0.5,1.8-1.1,2.3-2l0.1,0c-0.3,1.1-1.2,1.9-2.1,2.5c-0.9,0.6-1.9,1-3,1.4c-2.1,0.7-4.2,1-6.3,1.2
						c-2.1,0.2-4.3,0.3-6.4,0.3C73.6,145.4,71.5,145.4,69.4,144.8L69.4,144.8z"/>
				</g>
			</g>
			<g>
				<g>
					<path class="st0" d="M72,143.6c1,0.1,1.9-0.1,2.9-0.2c1-0.1,1.9-0.3,2.8-0.4c1.9-0.3,3.8-0.7,5.6-1.2c1.8-0.5,3.6-1.1,5.4-1.9
						c0.9-0.4,1.7-0.8,2.5-1.3c0.7-0.5,1.5-1.2,1.6-2.2l0.1,0c0.1,1-0.6,1.9-1.4,2.5c-0.8,0.6-1.6,1.1-2.5,1.5
						c-1.8,0.8-3.6,1.4-5.5,1.8c-1.9,0.5-3.8,0.8-5.7,1.1c-1,0.1-1.9,0.2-2.9,0.3C73.9,143.7,73,143.8,72,143.6L72,143.6z"/>
				</g>
			</g>
			<g>
				<g>
					<path class="st0" d="M65.3,145.6c2.3,0.8,4.8,1.3,7.2,1.5c2.4,0.3,4.9,0.4,7.3,0.4c2.5,0,4.9-0.3,7.3-0.7
						c1.2-0.2,2.4-0.5,3.5-0.9c1.1-0.4,2.2-1,2.8-2.1l0.1,0c-0.4,1.2-1.5,2.1-2.6,2.7c-1.1,0.6-2.4,1-3.6,1.3
						c-2.5,0.5-5,0.6-7.5,0.5c-2.5-0.1-5-0.3-7.4-0.7C70,147.3,67.6,146.7,65.3,145.6L65.3,145.6z"/>
				</g>
			</g>
		</g>
		<g>
			<g>
				<g>
					<g>
						<g>
							<path class="st3" d="M59.1,151.8c0.6-0.1,1.2-0.1,1.8,0c0.3,0,0.6,0.1,0.9,0.2c0.3,0.1,0.6,0.2,1,0.4l0,0
								c0.5,0.3,1,0.6,1.6,0.8c0.5,0.2,1.1,0.4,1.7,0.5c0.6,0.1,1.2,0.2,1.7,0.2c0.6,0,1.2-0.1,1.7-0.2l0.1,0c0.1,0,0.2,0,0.3,0.1
								c0.7,0.5,1.4,1,2.2,1.3c0.8,0.3,1.7,0.3,2.6,0.3c0.9-0.1,1.7-0.3,2.5-0.6c0.8-0.3,1.6-0.7,2.3-1.2c0.2-0.1,0.4-0.1,0.6,0l0,0
								c0.6,0.3,1.2,0.7,1.9,0.9c0.6,0.2,1.3,0.5,2,0.6c0.7,0.1,1.3,0.1,1.9,0c0.6-0.1,1.3-0.4,1.6-0.7l0.1,0
								c0.2-0.2,0.5-0.2,0.7-0.1c0.5,0.2,1,0.3,1.5,0.2c0.5-0.2,1-0.6,1.3-1.1l0-0.1c0.1-0.2,0.4-0.2,0.6-0.1
								c0.3,0.2,0.6,0.3,0.9,0.3c0.3,0,0.6-0.2,0.9-0.4c0.6-0.4,1.1-1,1.5-1.7c0,0,0.1,0,0.1,0c0,0,0,0,0,0.1
								c-0.2,0.8-0.6,1.5-1.2,2.1c-0.3,0.3-0.7,0.5-1.2,0.6c-0.5,0.1-1,0-1.4-0.2l0.6-0.2c-0.2,0.4-0.4,0.7-0.7,1
								c-0.3,0.3-0.6,0.5-1,0.7c-0.8,0.4-1.8,0.3-2.5,0l0.8-0.2c-0.7,0.7-1.5,1-2.3,1.2c-0.8,0.2-1.7,0.1-2.4,0
								c-0.8-0.1-1.5-0.4-2.2-0.8c-0.7-0.3-1.4-0.7-2-1.2l0.6,0c-0.9,0.5-1.7,0.8-2.6,1c-0.9,0.2-1.8,0.3-2.7,0.3
								c-0.9,0-1.8-0.1-2.7-0.4c-0.9-0.2-1.7-0.7-2.5-1.1l0.3,0c-0.6,0.3-1.3,0.5-1.9,0.6c-0.7,0.1-1.3,0.1-2,0
								c-1.3-0.2-2.6-0.8-3.6-1.6l0,0l0,0c-0.1-0.1-0.4-0.3-0.6-0.4c-0.2-0.1-0.5-0.2-0.8-0.3c-0.5-0.2-1.1-0.4-1.7-0.6
								C59.1,151.9,59,151.9,59.1,151.8C59.1,151.8,59.1,151.8,59.1,151.8z"/>
						</g>
					</g>
				</g>
			</g>
		</g>
		<g>
			<path class="st3" d="M76.3,165.1c0.8,0.3,1.6,0.6,2.5,0.8c0.8,0.1,1.7,0.2,2.5,0.2c1.7-0.1,3.4-0.4,5.1-1
				c-0.7,0.6-1.5,0.9-2.4,1.2c-0.9,0.3-1.8,0.5-2.7,0.5c-0.9,0-1.8-0.1-2.7-0.4C77.8,166.2,77,165.7,76.3,165.1z"/>
		</g>
		<g>
			<path class="st3" d="M70.8,170.8c0.9,0.2,1.7,0.5,2.5,0.6c0.8,0.2,1.7,0.2,2.5,0.3c1.7,0,3.4-0.3,5-1c-0.7,0.6-1.5,1-2.3,1.3
				c-0.9,0.3-1.8,0.4-2.7,0.4c-0.9,0-1.8-0.1-2.7-0.5c-0.4-0.1-0.8-0.3-1.2-0.5C71.5,171.3,71.1,171.1,70.8,170.8z"/>
		</g>
		<g>
			<path class="st3" d="M68.1,166.7c0.9,0.2,1.8,0.3,2.6,0.2c0.4,0,0.9-0.1,1.3-0.1c0.4,0,0.9,0,1.4,0.1c0,0,0,0,0,0c0,0,0,0,0,0
				c-0.4,0.3-0.8,0.5-1.3,0.6c-0.5,0.1-0.9,0-1.4,0C69.8,167.4,68.9,167.2,68.1,166.7C68,166.8,68,166.7,68.1,166.7
				C68.1,166.7,68.1,166.7,68.1,166.7z"/>
		</g>
		<g>
			<g>
				<g>
					<g>
						<g>
							<path class="st3" d="M61.9,159.2c0.6,0.2,1.2,0.4,1.8,0.6c0.6,0.2,1.2,0.2,1.8,0.3c1.2,0.1,2.4,0,3.5-0.2l0.1,0
								c0.1,0,0.2,0,0.3,0.1c0.5,0.4,1.1,0.9,1.8,1.1c0.7,0.2,1.4,0.3,2.1,0.2c0.7-0.1,1.4-0.3,2-0.6c0.6-0.3,1.3-0.6,1.8-1
								c0.1-0.1,0.3-0.1,0.5-0.1l0,0c1,0.3,2,0.6,3,0.8c1,0.2,2,0.3,3.1,0.3c2.1,0,4.2-0.3,6.2-0.9c0,0,0.1,0,0.1,0c0,0,0,0.1,0,0.1
								c-1.9,1-4.1,1.5-6.2,1.7c-1.1,0.1-2.2,0.1-3.3-0.1c-1.1-0.1-2.2-0.5-3.2-0.8l0.5-0.1c-0.7,0.5-1.4,0.8-2.1,1
								c-0.7,0.2-1.5,0.3-2.3,0.2c-0.8,0-1.5-0.2-2.2-0.4c-0.7-0.2-1.4-0.5-2.1-0.8l0.3,0c-1.3,0.6-2.6,0.6-3.9,0.3
								C64,160.6,62.8,160.1,61.9,159.2C61.9,159.3,61.8,159.2,61.9,159.2C61.9,159.2,61.9,159.2,61.9,159.2z"/>
						</g>
					</g>
				</g>
			</g>
		</g>
		<path class="st3" d="M95.1,151.2C95.1,151.2,95,151.2,95.1,151.2c-0.5,0.7-1,1.3-1.6,1.7c-0.3,0.2-0.6,0.3-0.9,0.4
			c-0.3,0-0.6-0.1-0.9-0.3c-0.2-0.1-0.5-0.1-0.6,0.1l0,0.1c-0.3,0.5-0.8,0.9-1.3,1.1c-0.5,0.2-1,0.1-1.5-0.2
			c-0.2-0.1-0.5-0.1-0.7,0.1l-0.1,0c-0.4,0.3-1,0.6-1.6,0.7c-0.6,0.1-1.3,0.1-1.9,0c-0.7-0.1-1.3-0.3-2-0.6
			c-0.6-0.3-1.3-0.6-1.9-0.9l0,0c-0.2-0.1-0.4-0.1-0.6,0c-0.7,0.5-1.5,0.9-2.3,1.2c-0.8,0.3-1.7,0.5-2.5,0.6c-0.9,0.1-1.8,0-2.6-0.3
			c-0.8-0.2-1.6-0.8-2.2-1.3c-0.1-0.1-0.2-0.1-0.3-0.1l-0.1,0c-0.5,0.2-1.1,0.2-1.7,0.2c-0.6,0-1.2-0.1-1.7-0.2
			c-0.6-0.1-1.1-0.3-1.7-0.5c-0.5-0.2-1.1-0.5-1.6-0.8l0,0c-0.4-0.3-0.6-0.3-1-0.4c-0.3-0.1-0.6-0.2-0.9-0.2c-0.6-0.1-1.2-0.1-1.8,0
			c0,0,0,0-0.1,0c0,0,0,0.1,0,0.1c0.6,0.2,1.1,0.4,1.7,0.6c0.3,0.1,0.5,0.2,0.8,0.3c0.2,0.1,0.5,0.3,0.6,0.4l0,0l0,0
			c1.1,0.8,2.3,1.4,3.6,1.6c0.7,0.1,1.4,0.1,2,0c0.6-0.1,1.2-0.2,1.8-0.5c0.8,0.4,1.5,0.8,2.4,1c0.9,0.2,1.8,0.4,2.7,0.4
			c0.9,0,1.8-0.1,2.7-0.3c0.8-0.2,1.5-0.5,2.3-0.9c0.5,0.4,1.1,0.7,1.7,1c0.7,0.3,1.4,0.6,2.2,0.8c0.8,0.2,1.6,0.2,2.4,0
			c0.7-0.2,1.3-0.4,2-0.9c0.7,0.2,1.4,0.2,2.1-0.1c0.4-0.2,0.7-0.4,1-0.7c0.2-0.2,0.4-0.4,0.5-0.6c0.3,0.1,0.6,0.1,1,0.1
			c0.5-0.1,0.9-0.4,1.2-0.6C94.5,152.8,94.9,152.1,95.1,151.2C95.1,151.3,95.1,151.2,95.1,151.2z"/>
		<g>
			<path class="st3" d="M76.3,165.1c0.8,0.3,1.6,0.6,2.5,0.8c0.8,0.1,1.7,0.2,2.5,0.2c1.7-0.1,3.4-0.4,5.1-1
				c-0.7,0.6-1.5,0.9-2.4,1.2c-0.9,0.3-1.8,0.5-2.7,0.5c-0.9,0-1.8-0.1-2.7-0.4C77.8,166.2,77,165.7,76.3,165.1z"/>
		</g>
		<g>
			<path class="st3" d="M70.8,170.8c0.9,0.2,1.7,0.5,2.5,0.6c0.8,0.2,1.7,0.2,2.5,0.3c1.7,0,3.4-0.3,5-1c-0.7,0.6-1.5,1-2.3,1.3
				c-0.9,0.3-1.8,0.4-2.7,0.4c-0.9,0-1.8-0.1-2.7-0.5c-0.4-0.1-0.8-0.3-1.2-0.5C71.6,171.3,71.2,171.1,70.8,170.8z"/>
		</g>
		<path class="st3" d="M89.7,159.8c-2,0.6-4.1,0.8-6.2,0.9c-1,0-2.1-0.1-3.1-0.3c-1-0.1-2-0.4-3-0.8l0,0c-0.2,0-0.3,0-0.5,0.1
			c-0.5,0.4-1.1,0.7-1.8,1c-0.6,0.3-1.3,0.5-2,0.6c-0.7,0.1-1.4,0-2.1-0.2c-0.7-0.2-1.2-0.7-1.8-1.1c-0.1-0.1-0.2-0.1-0.3-0.1
			l-0.1,0c-1.1,0.2-2.3,0.3-3.5,0.2c-0.6-0.1-1.2-0.1-1.8-0.3c-0.6-0.2-1.2-0.4-1.8-0.6c0,0,0,0-0.1,0c0,0,0,0.1,0,0.1
			c1,0.8,2.2,1.4,3.4,1.6c1.2,0.2,2.5,0.2,3.7-0.3c0.6,0.3,1.3,0.6,1.9,0.7c0.7,0.2,1.5,0.3,2.2,0.4c0.8,0,1.5,0,2.3-0.2
			c0.7-0.2,1.2-0.5,1.8-0.8c1,0.3,1.9,0.6,3,0.8c1.1,0.2,2.2,0.2,3.3,0.1C85.7,161.4,87.9,160.8,89.7,159.8
			C89.8,159.8,89.8,159.8,89.7,159.8C89.8,159.8,89.8,159.8,89.7,159.8z"/>
		<path class="st0" d="M100.1,119c-0.2-0.3-0.6-0.5-1-0.5c-0.4-0.6-0.7-1.2-0.7-1.4c0.1-0.1,0.1-0.2,0.1-0.3
			c0.1-0.3,0.4-1.2-0.3-1.9c-0.2-0.3-0.5-0.4-0.7-0.5c-0.1-0.1-0.3-0.1-0.4-0.3c-0.4-0.2-0.7-0.4-1-0.6c-0.1-0.3-0.4-0.8-0.8-1.1
			c-0.6-0.5-1.3-0.6-1.7-0.4c-0.1,0.1-0.3,0.1-0.2,0.7c0.1,0.5,0.1,0.6,0.1,0.7c-0.1,0-0.4,0.1-0.5,0.1c-0.2,0-0.4,0.1-0.4,0
			c-0.2-0.2-0.7-0.6-1.5-0.8c-0.7-0.1-1.6,0-1.8,0.4c-0.1,0.1-0.2,0.4,0.2,0.7c0.3,0.2,0.5,0.4,0.6,0.6c-0.8,0.9-3.1,4.1-1.7,9.8
			c0.5,2,0.5,2.7,0.5,4.3c0,0.4,0,0.8,0,1.3c0.2,6-5.3,9.8-10.8,10.9c-2,0.4-4.2,0.6-7.1,0.6c-1.1,0-2.2,0-3.4-0.1
			c-1.1,0-2.2-0.1-3.4-0.2c-3.1-0.5-4.9-1.3-5.1-4.1c-0.1-1.2-0.2-2.8-1.2-3.8c-0.5-0.5-1.2-0.8-2-0.8c-1,0-1.9,0.6-2.1,1.4
			c-0.3,1.2,0.5,2.2,1.5,2.9c-0.5,2.2-1.3,6.5-0.3,8.5c0.9,1.9,3,2.9,5.7,2.9c0.9,0,1.5-0.1,1.6-0.1c0.5-0.1,0.9-0.1,1.4-0.1
			c1.8,0,3,0.6,3,0.6c1.5,0.8,3,1.3,4.7,1.3c0.9,0,1.7-0.2,2.1-0.3c1.3,0.7,2.7,1.1,4.3,1.1c2.3,0,4.2-0.8,4.9-1.1
			c1.7,0.8,3.3,1.3,4.7,1.3c1.4,0,2.3-0.4,2.8-0.7c0.3,0.1,0.6,0.1,0.9,0.1c1.1,0,1.9-0.6,2.3-1c0.2,0,0.4,0.1,0.6,0.1
			c1.3,0,2.1-1.1,2.4-1.9c1.1-0.4,1.9-1.2,2.4-2.3c1.5-3.4-0.8-8.8-0.9-9c-0.5-1.1-1-2.3-1.6-3.4c-0.7-1.5-1.4-3-1.9-4.4
			c-0.1-0.2-0.2-0.5-0.4-0.9c-2.4-6.2-2.1-7.9-1.5-8.2c0.1,0,0.1,0,0.2,0c0.4,0,1.1,0.5,1.8,1.4c0.1,0.2,0.3,0.4,0.4,0.6
			c0.6,0.8,1.2,1.7,2.2,1.7c0.8,0,1.7-0.6,2.8-1.9c0-0.1,0.1-0.1,0.1-0.2C100.4,120.1,100.4,119.5,100.1,119z M99.7,120.2
			c-1,1.2-1.8,1.7-2.3,1.7c-0.9,0-1.4-1-2.1-2c-0.7-0.9-1.5-1.7-2.3-1.7c-0.2,0-0.3,0-0.5,0.1c-2.3,1.1,0.9,8.2,1.5,9.9
			c0.9,2.6,2.5,5.3,3.5,7.9c0,0,3.9,8.9-1.5,10.5c0,0-0.5,1.8-1.9,1.8c-0.2,0-0.5-0.1-0.8-0.2c0,0-0.7,1.2-2.1,1.2
			c-0.3,0-0.7-0.1-1-0.2c0,0-0.9,0.8-2.7,0.8c-1.2,0-2.7-0.3-4.7-1.3c0,0-2.2,1.2-4.9,1.2c-1.3,0-2.8-0.3-4.2-1.1
			c0,0-0.8,0.3-2.1,0.3c-1.2,0-2.7-0.2-4.3-1.2c0,0-1.2-0.7-3.3-0.7c-0.5,0-1,0-1.5,0.1c0,0-0.6,0.1-1.4,0.1c-1.6,0-4-0.4-5.1-2.6
			c-1-1.9,0-6.6,0.4-8.5c-0.9-0.5-1.9-1.4-1.6-2.4c0.2-0.6,0.8-0.9,1.5-0.9c0.6,0,1.1,0.2,1.5,0.6c0.8,0.9,0.9,2.2,1,3.4
			c0.2,3.4,2.6,4.2,5.6,4.7c1.1,0.2,2.3,0.2,3.5,0.2c1.1,0,2.2,0.1,3.4,0.1c2.4,0,4.8-0.1,7.2-0.6c5.7-1.2,11.5-5.2,11.3-11.5
			c-0.1-2.7,0.1-3.3-0.6-5.8c-1.3-5.1,0.6-8.1,1.4-9c0.3,0.6,0.1,1.1,0.1,1.2c0.1,0.1,0.2,0.1,0.3,0c0.1,0,0.1-0.1,0.1-0.1
			c0.5-1-0.6-2-1.2-2.6c0,0,0,0-0.1-0.1c0.1-0.1,0.6-0.2,1.2-0.1c0.8,0.1,1.3,0.8,1.4,0.8c0.1,0.1,0.3,0,0.4-0.1
			c0.2-0.1,0.4-0.2,0.6-0.2c0.4,0,0.7,0,1.1,0.1c0,0,0.1,0,0.1,0c0.2,0,0-0.2,0-0.2c-0.1-0.1-0.2-0.1-0.4-0.2
			c-0.1-0.5-0.1-0.7-0.2-1.1c0,0,0-0.1,0-0.1c0.1,0,0.5-0.1,1,0.3c0.5,0.4,0.7,0.9,0.9,1.1c0,0,0,0.1,0,0.1c0.3,0.1,0.6,0.3,0.9,0.5
			c0.5,0.3,0.8,0.4,1,0.6c0.4,0.5,0.2,1.1,0.1,1.3c-0.7,0.5,0.9,2.6,0.9,2.6c0.1,0,0.2,0,0.2,0C99.8,119.1,99.8,119.9,99.7,120.2z"
			/>
		<g>
			<path class="st3" d="M55,102.4C55,102.4,55,102.5,55,102.4c-0.5,1.2-0.6,2.4-0.8,3.7c-0.1,1.2,0,2.4,0,3.6c0,2.4,0.1,4.8,0.2,7.3
				c0,0,0,0.1,0.1,0.1c0,0,0.1,0,0.1-0.1c0.3-2.4,0.5-4.8,0.7-7.2c0.1-1.2,0.3-2.4,0.2-3.6C55.5,104.9,55.4,103.7,55,102.4
				C55.1,102.5,55.1,102.4,55,102.4z M54.6,117l0.5-14.5L54.6,117z"/>
			<path class="st3" d="M48.7,107.7c-0.4-1-0.9-2.1-1.5-3c0,0,0,0-0.1,0c0,0-0.1,0-0.1,0.1c0,1.2,0.2,2.3,0.5,3.4
				c0.2,1.1,0.7,2.1,1.1,3.2c0.8,2.1,1.6,4.2,2.4,6.2c0,0,0,0,0.1,0c0,0,0.1,0,0-0.1c-0.5-2.2-1-4.3-1.6-6.5
				C49.3,109.8,49.1,108.7,48.7,107.7z"/>
			<path class="st3" d="M47.4,119.2C47.4,119.2,47.4,119.2,47.4,119.2c0.1,0,0.1,0,0.1-0.1c-0.8-1.6-1.5-3.2-2.4-4.7
				c-0.4-0.8-0.7-1.6-1.3-2.3c-0.1-0.1-0.2-0.3-0.3-0.4c0.1,1,0.3,1.9,0.4,2.9c0.1,0.1,0.2,0.3,0.3,0.4
				C45.3,116.4,46.3,117.8,47.4,119.2z"/>
			<path class="st3" d="M62.1,106.7C62.1,106.7,62,106.6,62.1,106.7c-0.1-0.1-0.1-0.1-0.1,0c-0.6,0.8-1.1,1.7-1.5,2.6
				c-0.4,0.9-0.6,1.9-0.9,2.8c-0.5,1.9-1,3.8-1.5,5.7c0,0,0,0.1,0,0.1c0,0,0.1,0,0.1,0c0.8-1.8,1.6-3.6,2.4-5.4
				c0.4-0.9,0.9-1.8,1.1-2.7C61.9,108.7,62.1,107.7,62.1,106.7z"/>
			<path class="st3" d="M69.9,107.1c0.8-1.5,1.6-3,2.2-4.6c0,0,0-0.1,0-0.1c0,0-0.1,0-0.1,0c-1.2,1.2-2.2,2.6-3.1,4
				c-1,1.4-1.7,2.9-2.5,4.3c-1.7,2.9-3.3,5.8-4.9,8.8c0,0,0,0.1,0,0.1c0,0,0.1,0,0.1,0c1.9-2.8,3.8-5.5,5.7-8.3
				C68.1,109.9,69.1,108.6,69.9,107.1z"/>
			<path class="st3" d="M72.2,113.2c-1,0.5-1.8,1.2-2.5,1.9c-0.8,0.7-1.3,1.5-2,2.3c-1.3,1.6-2.6,3.2-3.9,4.8c0,0,0,0.1,0,0.1
				c0,0,0.1,0,0.1,0c1.5-1.4,3-2.8,4.5-4.2c0.7-0.7,1.6-1.3,2.2-2.2C71.3,115.1,71.9,114.3,72.2,113.2
				C72.3,113.3,72.3,113.2,72.2,113.2C72.3,113.2,72.3,113.2,72.2,113.2z"/>
			<path class="st3" d="M70.1,122.9c0.5-0.3,1-0.7,1.3-1.3c0,0,0,0,0,0c0,0,0-0.1-0.1-0.1c-0.7-0.1-1.3,0.1-1.8,0.3
				c-0.6,0.2-1,0.6-1.5,0.9c-1,0.6-2,1.2-3,1.9c0,0,0,0,0,0.1c0,0,0,0.1,0.1,0c1.1-0.3,2.2-0.7,3.3-1.1
				C69.1,123.3,69.7,123.2,70.1,122.9z"/>
			<path class="st3" d="M70.5,125.8c-0.6,0-1.1,0.2-1.7,0.4c-1.1,0.3-2.2,0.6-3.3,0.9c0,0,0,0,0,0.1c0,0,0,0.1,0.1,0.1
				c1.1,0,2.3,0,3.4-0.1c0.6,0,1.1,0,1.7-0.1c0.5-0.2,1.1-0.4,1.6-0.8c0,0,0,0,0,0c0,0,0-0.1,0-0.1
				C71.7,125.9,71.1,125.8,70.5,125.8z"/>
			<path class="st3" d="M54.3,119.9c-3.4-0.1-6.5,1.5-8.5,4c0,0,0.2,0.6,0.2,0.7c0.5,2,0.9,3.6,1.5,5.6H64
				C64,124.7,59.8,120.1,54.3,119.9z"/>
		</g>
	</g>
	<rect y="36" class="st5" width="396" height="190.9"/>
</g>
</svg>
